<svg width="50" height="50" xmlns="http://www.w3.org/2000/svg">
 <!-- Created with SVG-edit - http://svg-edit.googlecode.com/ -->
 <g>
  <title>Layer 1</title>
  <metadata>Created by potrace 1.10, written by Peter Selinger 2001-2011</metadata>
  <g id="svg_6">
   <g transform="matrix(0.0271186 0 0 -0.0271186 0 101.695)" fill="#FFFFFF" id="svg_4">
    <path d="m1486.877808,3490.477539c-90,-23 -132,-64 -191,-186c-24,-49 -54,-97 -66,-106c-13,-9 -61,-33 -108,-54c-115.000061,-52 -218.000061,-110 -389.000061,-222c-79,-52 -176,-110 -215,-130c-101,-51 -125,-69 -119,-92c6,-24 -28,-42 -172,-95c-176.000011,-64 -228.000015,-88 -213.000015,-98c7,-4 30.000004,-5 52.000008,-2c21,3 36.999977,2 33.999977,-2c-47.999981,-100 -58.999981,-144 -37.999981,-144c15.000004,0 74.999981,32 230.000011,120c256,147 243,142 389,137c69,-2 161,-10 203,-17l77,-14l-6,-29c-5,-26 3,-36 76.000061,-106c44,-42 81,-82 81,-89c0,-22 -33,-63 -46,-58c-7,3 -16,-5 -20,-17c-8,-24 -37.000061,-68 -71.000061,-107c-27,-30 -30,-45 -5,-35c9,3 30,9 45,12c15.000061,3 44.000061,25 66.000061,49c33,38 40,42 51,29c13,-16 38,-19 64,-9c13,5 16,23 16,90c0,101 13,136 47,128c47,-12 69,41 39,95c-11,20 -11,30 3,62c13,30 30,45 83,74c183,99 272,242 284,455c7,122 9,130 38,161c18,19 40,29 75,34c28,4 53,11 56,15c8,12 -45,50 -78,57c-16,3 -35,16 -44,29c-31,48 -156,84 -228,65zm-330,-935c33,-15 55,-31 55,-41c0,-23 -60,-125 -74,-125c-6,0 -39,28 -73,63c-51.000061,52 -60.000061,65 -53.000061,84c19.000061,48 65.000061,54 145.000061,19z" id="svg_5"/>
   </g>
  </g>
 </g>
</svg>